<svg width="22" height="16" viewBox="0 0 22 16" fill="none" xmlns="http://www.w3.org/2000/svg">
<path d="M20.7887 2.28874C20.8759 2.20158 20.9451 2.0981 20.9922 1.98421C21.0394 1.87033 21.0637 1.74826 21.0637 1.62499C21.0637 1.50172 21.0394 1.37966 20.9922 1.26578C20.9451 1.15189 20.8759 1.04841 20.7887 0.961244C20.7016 0.874079 20.5981 0.804936 20.4842 0.757763C20.3703 0.71059 20.2483 0.68631 20.125 0.68631C20.0017 0.68631 19.8797 0.71059 19.7658 0.757763C19.6519 0.804936 19.5484 0.874079 19.4612 0.961244L7 13.4244L2.03874 8.46124C1.95158 8.37408 1.8481 8.30494 1.73421 8.25776C1.62033 8.21059 1.49826 8.18631 1.37499 8.18631C1.25172 8.18631 1.12966 8.21059 1.01578 8.25776C0.901889 8.30494 0.798409 8.37408 0.711244 8.46124C0.624079 8.54841 0.554936 8.65189 0.507763 8.76577C0.46059 8.87966 0.43631 9.00172 0.43631 9.12499C0.43631 9.24826 0.46059 9.37033 0.507763 9.48421C0.554936 9.5981 0.624079 9.70158 0.711244 9.78874L6.33625 15.4137C6.42333 15.501 6.52679 15.5703 6.64068 15.6176C6.75458 15.6648 6.87668 15.6892 7 15.6892C7.12331 15.6892 7.24541 15.6648 7.35931 15.6176C7.47321 15.5703 7.57666 15.501 7.66375 15.4137L20.7887 2.28874Z" fill="black"/>
</svg>
