<svg width="22" height="14" viewBox="0 0 22 14" fill="none" xmlns="http://www.w3.org/2000/svg">
<path fill-rule="evenodd" clip-rule="evenodd" d="M20.7262 7.66374C20.8136 7.57666 20.8828 7.4732 20.9301 7.35931C20.9773 7.24541 21.0017 7.12331 21.0017 6.99999C21.0017 6.87668 20.9773 6.75458 20.9301 6.64068C20.8828 6.52678 20.8136 6.42333 20.7262 6.33624L15.1012 0.711244C14.9252 0.535207 14.6865 0.43631 14.4375 0.43631C14.1885 0.43631 13.9498 0.535207 13.7737 0.711244C13.5977 0.887282 13.4988 1.12604 13.4988 1.37499C13.4988 1.62395 13.5977 1.86271 13.7737 2.03874L17.7994 6.06249H1.3125C1.06386 6.06249 0.825403 6.16127 0.649588 6.33708C0.473772 6.5129 0.375 6.75135 0.375 6.99999C0.375 7.24864 0.473772 7.48709 0.649588 7.66291C0.825403 7.83872 1.06386 7.93749 1.3125 7.93749H17.7994L13.7737 11.9612C13.5977 12.1373 13.4988 12.376 13.4988 12.625C13.4988 12.874 13.5977 13.1127 13.7737 13.2887C13.9498 13.4648 14.1885 13.5637 14.4375 13.5637C14.6865 13.5637 14.9252 13.4648 15.1012 13.2887L20.7262 7.66374Z" fill="white"/>
</svg>
