<svg width="14" height="14" viewBox="0 0 14 14" fill="none" xmlns="http://www.w3.org/2000/svg">
<path d="M0.711247 0.711247C0.798333 0.623941 0.901787 0.554673 1.01568 0.507411C1.12958 0.460148 1.25168 0.435822 1.375 0.435822C1.49831 0.435822 1.62041 0.460148 1.73431 0.507411C1.84821 0.554673 1.95166 0.623941 2.03875 0.711247L7 5.67437L11.9612 0.711247C12.0484 0.624082 12.1519 0.554939 12.2658 0.507766C12.3797 0.460592 12.5017 0.436312 12.625 0.436312C12.7483 0.436312 12.8703 0.460592 12.9842 0.507766C13.0981 0.554939 13.2016 0.624082 13.2887 0.711247C13.3759 0.798412 13.4451 0.901891 13.4922 1.01578C13.5394 1.12966 13.5637 1.25173 13.5637 1.375C13.5637 1.49827 13.5394 1.62033 13.4922 1.73422C13.4451 1.8481 13.3759 1.95158 13.2887 2.03875L8.32562 7L13.2887 11.9612C13.3759 12.0484 13.4451 12.1519 13.4922 12.2658C13.5394 12.3797 13.5637 12.5017 13.5637 12.625C13.5637 12.7483 13.5394 12.8703 13.4922 12.9842C13.4451 13.0981 13.3759 13.2016 13.2887 13.2887C13.2016 13.3759 13.0981 13.4451 12.9842 13.4922C12.8703 13.5394 12.7483 13.5637 12.625 13.5637C12.5017 13.5637 12.3797 13.5394 12.2658 13.4922C12.1519 13.4451 12.0484 13.3759 11.9612 13.2887L7 8.32562L2.03875 13.2887C1.95158 13.3759 1.8481 13.4451 1.73422 13.4922C1.62033 13.5394 1.49827 13.5637 1.375 13.5637C1.25173 13.5637 1.12966 13.5394 1.01578 13.4922C0.901891 13.4451 0.798412 13.3759 0.711247 13.2887C0.624082 13.2016 0.554939 13.0981 0.507766 12.9842C0.460592 12.8703 0.436312 12.7483 0.436312 12.625C0.436312 12.5017 0.460592 12.3797 0.507766 12.2658C0.554939 12.1519 0.624082 12.0484 0.711247 11.9612L5.67437 7L0.711247 2.03875C0.623941 1.95166 0.554673 1.84821 0.507411 1.73431C0.460148 1.62041 0.435822 1.49831 0.435822 1.375C0.435822 1.25168 0.460148 1.12958 0.507411 1.01568C0.554673 0.901787 0.623941 0.798333 0.711247 0.711247Z" fill="black"/>
</svg>
