<svg width="20" height="28" viewBox="0 0 20 28" fill="none" xmlns="http://www.w3.org/2000/svg">
<path d="M4.09502 0.996686C5.54896 0.213323 7.22082 -0.0682254 8.85113 0.195735C10.4814 0.459696 11.979 1.2544 13.1115 2.45653C14.244 3.65865 14.948 5.20097 15.1143 6.84412C15.2806 8.48727 14.8999 10.1394 14.0313 11.544L19.839 22.3333C19.8976 22.4417 19.9342 22.5606 19.9468 22.6831C19.9595 22.8057 19.9478 22.9295 19.9125 23.0475L18.7691 26.8571C18.7338 26.9753 18.6755 27.0853 18.5976 27.1809C18.5197 27.2765 18.4238 27.3558 18.3152 27.4142C18.2066 27.4727 18.0875 27.5091 17.9649 27.5215C17.8422 27.5339 17.7182 27.5219 17.6002 27.4863L13.7906 26.3429C13.6724 26.3076 13.5624 26.2493 13.4668 26.1714C13.3712 26.0935 13.2919 25.9976 13.2335 25.889C13.175 25.7804 13.1386 25.6613 13.1262 25.5387C13.1138 25.416 13.1258 25.292 13.1614 25.174L13.6555 23.5324L12.0132 23.0409C11.895 23.0056 11.785 22.9473 11.6894 22.8694C11.5938 22.7915 11.5145 22.6955 11.4561 22.587C11.3976 22.4784 11.3612 22.3593 11.3488 22.2366C11.3364 22.114 11.3484 21.99 11.384 21.872L11.8781 20.2304L10.2358 19.7389C10.1176 19.7036 10.0076 19.6453 9.91198 19.5674C9.81638 19.4895 9.73708 19.3935 9.67863 19.285C9.62019 19.1764 9.58373 19.0573 9.57137 18.9346C9.559 18.8119 9.57095 18.688 9.60655 18.57L10.1006 16.9284L8.45834 16.4369C8.34039 16.4013 8.2306 16.3428 8.13526 16.2648C8.03992 16.1868 7.96089 16.0907 7.90269 15.9821L7.42723 15.0989C5.7764 15.0504 4.18772 14.4584 2.90774 13.4147C1.62776 12.371 0.728072 10.9341 0.348286 9.32678C-0.0314997 7.71949 0.129859 6.03179 0.807323 4.52559C1.48479 3.01939 2.64047 1.77892 4.09502 0.996686ZM12.6029 4.93458C12.1254 4.0484 11.4189 3.30658 10.5571 2.78651C9.69522 2.26643 8.7096 1.98716 7.70303 1.97783C6.69646 1.96849 5.70583 2.22944 4.83448 2.73344C3.96313 3.23744 3.243 3.96603 2.7492 4.8432C2.2554 5.72037 2.00603 6.71398 2.02711 7.72037C2.04818 8.72677 2.33894 9.70906 2.86903 10.5648C3.39913 11.4205 4.14914 12.1183 5.04083 12.5854C5.93252 13.0525 6.93321 13.2717 7.9385 13.2202C8.11531 13.2115 8.29098 13.253 8.44518 13.34C8.59938 13.4269 8.72581 13.5557 8.80985 13.7115L9.36973 14.7517L11.5378 15.401C11.6559 15.4363 11.7659 15.4946 11.8615 15.5725C11.9571 15.6504 12.0364 15.7464 12.0949 15.8549C12.1533 15.9635 12.1898 16.0826 12.2022 16.2053C12.2145 16.3279 12.2026 16.4519 12.167 16.5699L11.6729 18.2115L13.3152 18.703C13.4333 18.7383 13.5434 18.7966 13.639 18.8745C13.7346 18.9524 13.8139 19.0484 13.8723 19.1569C13.9308 19.2655 13.9672 19.3846 13.9796 19.5073C13.9919 19.63 13.98 19.7539 13.9444 19.872L13.4503 21.5135L15.0926 22.005C15.2108 22.0403 15.3208 22.0986 15.4164 22.1765C15.512 22.2544 15.5913 22.3504 15.6497 22.459C15.7082 22.5675 15.7446 22.6866 15.757 22.8093C15.7694 22.932 15.7574 23.0559 15.7218 23.174L15.2277 24.8155L17.2417 25.42L18.004 22.8803L12.1119 11.9341C12.0281 11.7782 11.9902 11.6017 12.0025 11.4251C12.0148 11.2485 12.0769 11.079 12.1816 10.9362C12.8128 10.0784 13.1875 9.05892 13.2621 7.99647C13.3366 6.93401 13.1081 5.87222 12.6029 4.93458Z" fill="black"/>
</svg>
