<svg width="38" height="37" viewBox="0 0 38 37" fill="none" xmlns="http://www.w3.org/2000/svg">
<path fill-rule="evenodd" clip-rule="evenodd" d="M19.25 32.6538C23.2282 32.6538 27.0436 31.1464 29.8566 28.4632C32.6696 25.78 34.25 22.1408 34.25 18.3461C34.25 14.5515 32.6696 10.9123 29.8566 8.22908C27.0436 5.54587 23.2282 4.03846 19.25 4.03846C15.2718 4.03846 11.4564 5.54587 8.6434 8.22908C5.83035 10.9123 4.25 14.5515 4.25 18.3461C4.25 22.1408 5.83035 25.78 8.6434 28.4632C11.4564 31.1464 15.2718 32.6538 19.25 32.6538ZM38 18.3461C38 23.0894 36.0246 27.6385 32.5083 30.9925C28.9919 34.3465 24.2228 36.2308 19.25 36.2308C14.2772 36.2308 9.50805 34.3465 5.99175 30.9925C2.47544 27.6385 0.5 23.0894 0.5 18.3461C0.5 13.6029 2.47544 9.05383 5.99175 5.69982C9.50805 2.3458 14.2772 0.461533 19.25 0.461533C24.2228 0.461533 28.9919 2.3458 32.5083 5.69982C36.0246 9.05383 38 13.6029 38 18.3461Z" fill="white"/>
</svg>
