<svg width="11" height="17" viewBox="0 0 11 17" fill="none" xmlns="http://www.w3.org/2000/svg">
<path d="M0.493785 11.325C0.64066 13.1875 2.11254 14.6375 4.75316 14.8125V16.1875H5.92504V14.8031C8.65941 14.6125 10.2563 13.15 10.2563 11.0313C10.2563 9.1 9.03754 8.10625 6.85004 7.59375L5.92504 7.375V3.625C7.10004 3.75937 7.84379 4.4 8.02192 5.2875H10.0782C9.93129 3.49063 8.39066 2.0875 5.92504 1.93438V0.5625H4.75316V1.96875C2.41879 2.19687 0.831284 3.6 0.831284 5.5875C0.831284 7.34375 2.01254 8.4625 3.97816 8.91875L4.75316 9.10937V13.0844C3.55316 12.9031 2.75629 12.2406 2.57816 11.325H0.490662H0.493785ZM4.74379 7.09375C3.59066 6.82813 2.96566 6.28125 2.96566 5.4625C2.96566 4.54375 3.64066 3.85625 4.75316 3.65625V7.09375H4.74379ZM6.09379 9.425C7.49691 9.75 8.14067 10.275 8.14067 11.2031C8.14067 12.2625 7.33754 12.9875 5.92504 13.1219V9.3875L6.09379 9.425Z" fill="white"/>
</svg>
