<svg width="21" height="11" viewBox="0 0 21 11" fill="none" xmlns="http://www.w3.org/2000/svg">
<path fill-rule="evenodd" clip-rule="evenodd" d="M0.571868 0.259383C0.644439 0.186627 0.730651 0.128904 0.825566 0.089519C0.92048 0.0501339 1.02223 0.0298615 1.12499 0.0298615C1.22775 0.0298615 1.32951 0.0501339 1.42442 0.089519C1.51934 0.128904 1.60555 0.186627 1.67812 0.259383L10.5 9.08282L19.3219 0.259383C19.3945 0.186745 19.4807 0.129126 19.5757 0.0898148C19.6706 0.0505037 19.7723 0.0302705 19.875 0.0302705C19.9777 0.0302705 20.0794 0.0505037 20.1743 0.0898148C20.2693 0.129126 20.3555 0.186745 20.4281 0.259383C20.5008 0.33202 20.5584 0.418253 20.5977 0.513158C20.637 0.608064 20.6572 0.709783 20.6572 0.812508C20.6572 0.915232 20.637 1.01695 20.5977 1.11186C20.5584 1.20676 20.5008 1.293 20.4281 1.36563L11.0531 10.7406C10.9805 10.8134 10.8943 10.8711 10.7994 10.9105C10.7045 10.9499 10.6028 10.9702 10.5 10.9702C10.3972 10.9702 10.2955 10.9499 10.2006 10.9105C10.1057 10.8711 10.0194 10.8134 9.94687 10.7406L0.571868 1.36563C0.499113 1.29306 0.44139 1.20685 0.402005 1.11194C0.362619 1.01702 0.342346 0.915269 0.342346 0.812508C0.342346 0.709746 0.362619 0.607994 0.402005 0.51308C0.44139 0.418166 0.499113 0.331954 0.571868 0.259383Z" fill="white"/>
</svg>
