<svg width="26" height="101" viewBox="0 0 26 101" fill="none" xmlns="http://www.w3.org/2000/svg">
<path d="M0.524902 88C0.524902 86.3585 0.848223 84.733 1.47641 83.2165C2.10459 81.6999 3.02534 80.3219 4.18607 79.1612C5.3468 78.0004 6.72479 77.0797 8.24136 76.4515C9.75793 75.8233 11.3834 75.5 13.0249 75.5C14.6664 75.5 16.2919 75.8233 17.8084 76.4515C19.325 77.0797 20.703 78.0004 21.8637 79.1612C23.0245 80.3219 23.9452 81.6999 24.5734 83.2165C25.2016 84.733 25.5249 86.3585 25.5249 88C25.5249 91.3152 24.2079 94.4946 21.8637 96.8388C19.5195 99.183 16.3401 100.5 13.0249 100.5C9.7097 100.5 6.53027 99.183 4.18607 96.8388C1.84187 94.4946 0.524902 91.3152 0.524902 88ZM1.7499 12.9375C1.58344 11.3605 1.75039 9.76615 2.23991 8.25785C2.72942 6.74955 3.53058 5.36102 4.59139 4.18234C5.6522 3.00366 6.94896 2.06117 8.39754 1.41603C9.84612 0.770886 11.4142 0.4375 12.9999 0.4375C14.5857 0.4375 16.1537 0.770886 17.6023 1.41603C19.0508 2.06117 20.3476 3.00366 21.4084 4.18234C22.4692 5.36102 23.2704 6.74955 23.7599 8.25785C24.2494 9.76615 24.4164 11.3605 24.2499 12.9375L19.8749 56.775C19.7279 58.4971 18.9399 60.1014 17.6669 61.2705C16.3938 62.4395 14.7283 63.0882 12.9999 63.0882C11.2715 63.0882 9.60604 62.4395 8.33296 61.2705C7.05988 60.1014 6.2719 58.4971 6.1249 56.775L1.7499 12.9375Z" fill="black"/>
</svg>
