<svg width="43" height="41" viewBox="0 0 43 41" fill="none" xmlns="http://www.w3.org/2000/svg">
<path d="M21.5 3.08813C23.7212 3.08813 25.8514 3.61998 27.422 4.56667C28.9926 5.51337 29.875 6.79737 29.875 8.1362V18.2324H13.125V8.1362C13.125 6.79737 14.0074 5.51337 15.578 4.56667C17.1486 3.61998 19.2788 3.08813 21.5 3.08813ZM34.0625 18.2324V8.1362C34.0625 6.12795 32.739 4.20196 30.383 2.78191C28.0271 1.36186 24.8318 0.564087 21.5 0.564087C18.1682 0.564087 14.9729 1.36186 12.617 2.78191C10.261 4.20196 8.9375 6.12795 8.9375 8.1362V18.2324C6.71631 18.2324 4.5861 18.7642 3.01548 19.7109C1.44486 20.6576 0.5625 21.9416 0.5625 23.2804V35.9006C0.5625 37.2395 1.44486 38.5235 3.01548 39.4702C4.5861 40.4169 6.71631 40.9487 8.9375 40.9487H34.0625C36.2837 40.9487 38.4139 40.4169 39.9845 39.4702C41.5551 38.5235 42.4375 37.2395 42.4375 35.9006V23.2804C42.4375 21.9416 41.5551 20.6576 39.9845 19.7109C38.4139 18.7642 36.2837 18.2324 34.0625 18.2324ZM8.9375 20.7564H34.0625C35.1731 20.7564 36.2382 21.0223 37.0235 21.4957C37.8088 21.969 38.25 22.611 38.25 23.2804V35.9006C38.25 36.57 37.8088 37.212 37.0235 37.6854C36.2382 38.1587 35.1731 38.4247 34.0625 38.4247H8.9375C7.82691 38.4247 6.7618 38.1587 5.97649 37.6854C5.19118 37.212 4.75 36.57 4.75 35.9006V23.2804C4.75 22.611 5.19118 21.969 5.97649 21.4957C6.7618 21.0223 7.82691 20.7564 8.9375 20.7564Z" fill="black"/>
</svg>
