<svg width="23" height="30" viewBox="0 0 23 30" fill="none" xmlns="http://www.w3.org/2000/svg">
<path d="M11.5 1.875C12.6603 1.875 13.7731 2.27009 14.5936 2.97335C15.4141 3.67661 15.875 4.63044 15.875 5.625V13.125H7.125V5.625C7.125 4.63044 7.58594 3.67661 8.40641 2.97335C9.22688 2.27009 10.3397 1.875 11.5 1.875ZM18.0625 13.125V5.625C18.0625 4.13316 17.3711 2.70242 16.1404 1.64752C14.9097 0.592632 13.2405 0 11.5 0C9.75952 0 8.09032 0.592632 6.85961 1.64752C5.6289 2.70242 4.9375 4.13316 4.9375 5.625V13.125C3.77718 13.125 2.66438 13.5201 1.84391 14.2233C1.02344 14.9266 0.5625 15.8804 0.5625 16.875V26.25C0.5625 27.2446 1.02344 28.1984 1.84391 28.9016C2.66438 29.6049 3.77718 30 4.9375 30H18.0625C19.2228 30 20.3356 29.6049 21.1561 28.9016C21.9766 28.1984 22.4375 27.2446 22.4375 26.25V16.875C22.4375 15.8804 21.9766 14.9266 21.1561 14.2233C20.3356 13.5201 19.2228 13.125 18.0625 13.125ZM4.9375 15H18.0625C18.6427 15 19.1991 15.1975 19.6093 15.5492C20.0195 15.9008 20.25 16.3777 20.25 16.875V26.25C20.25 26.7473 20.0195 27.2242 19.6093 27.5758C19.1991 27.9275 18.6427 28.125 18.0625 28.125H4.9375C4.35734 28.125 3.80094 27.9275 3.3907 27.5758C2.98047 27.2242 2.75 26.7473 2.75 26.25V16.875C2.75 16.3777 2.98047 15.9008 3.3907 15.5492C3.80094 15.1975 4.35734 15 4.9375 15Z" fill="black"/>
</svg>
