<svg width="21" height="24" viewBox="0 0 21 24" fill="none" xmlns="http://www.w3.org/2000/svg">
<path fill-rule="evenodd" clip-rule="evenodd" d="M18.75 20.4375C18.75 20.6861 18.6512 20.9246 18.4754 21.1004C18.2996 21.2762 18.0611 21.375 17.8125 21.375H2.8125C2.56386 21.375 2.3254 21.2762 2.14959 21.1004C1.97377 20.9246 1.875 20.6861 1.875 20.4375V3.5625C1.875 3.31386 1.97377 3.0754 2.14959 2.89959C2.3254 2.72377 2.56386 2.625 2.8125 2.625H17.8125C18.0611 2.625 18.2996 2.72377 18.4754 2.89959C18.6512 3.0754 18.75 3.31386 18.75 3.5625V7.3125C18.75 7.56114 18.8488 7.7996 19.0246 7.97541C19.2004 8.15123 19.4389 8.25 19.6875 8.25C19.9361 8.25 20.1746 8.15123 20.3504 7.97541C20.5262 7.7996 20.625 7.56114 20.625 7.3125V3.5625C20.625 2.81658 20.3287 2.10121 19.8012 1.57376C19.2738 1.04632 18.5584 0.75 17.8125 0.75H2.8125C2.06658 0.75 1.35121 1.04632 0.823762 1.57376C0.296316 2.10121 0 2.81658 0 3.5625L0 20.4375C0 21.1834 0.296316 21.8988 0.823762 22.4262C1.35121 22.9537 2.06658 23.25 2.8125 23.25H17.8125C18.5584 23.25 19.2738 22.9537 19.8012 22.4262C20.3287 21.8988 20.625 21.1834 20.625 20.4375V16.6875C20.625 16.4389 20.5262 16.2004 20.3504 16.0246C20.1746 15.8488 19.9361 15.75 19.6875 15.75C19.4389 15.75 19.2004 15.8488 19.0246 16.0246C18.8488 16.2004 18.75 16.4389 18.75 16.6875V20.4375Z" fill="white"/>
</svg>
