<svg width="29" height="28" viewBox="0 0 29 28" fill="none" xmlns="http://www.w3.org/2000/svg">
<path d="M1.97635 9.76867C1.03632 8.66413 0.573559 7.2314 0.68988 5.78567C0.8062 4.33994 1.49207 2.99963 2.59661 2.0596C3.70114 1.11956 5.13387 0.656805 6.5796 0.773125C8.02533 0.889445 9.36564 1.57532 10.3057 2.67985L23.0655 17.6726C23.6296 18.3354 23.9072 19.195 23.8374 20.0624C23.7676 20.9299 23.3561 21.7341 22.6934 22.2981C22.0307 22.8621 21.171 23.1398 20.3036 23.07C19.4362 23.0002 18.632 22.5886 18.0679 21.9259L8.14361 10.2649C7.9556 10.044 7.86305 9.75742 7.88631 9.46827C7.90958 9.17913 8.04675 8.91106 8.26766 8.72306C8.48857 8.53505 8.77511 8.4425 9.06426 8.46576C9.3534 8.48903 9.62147 8.6262 9.80947 8.84711L19.7338 20.5082C19.9218 20.7291 20.1899 20.8662 20.479 20.8895C20.7682 20.9128 21.0547 20.8202 21.2756 20.6322C21.4965 20.4442 21.6337 20.1761 21.657 19.887C21.6802 19.5979 21.5877 19.3113 21.3997 19.0904L8.63981 4.09762C8.36054 3.76947 8.01936 3.49954 7.63577 3.30325C7.25218 3.10695 6.83368 2.98814 6.40417 2.95358C5.97465 2.91902 5.54254 2.9694 5.1325 3.10184C4.72246 3.23428 4.34252 3.44619 4.01437 3.72546C3.68622 4.00474 3.4163 4.34591 3.22 4.7295C3.02371 5.1131 2.90489 5.5316 2.87033 5.96111C2.83578 6.39062 2.88616 6.82273 3.0186 7.23277C3.15104 7.64282 3.36294 8.02276 3.64222 8.3509L16.4021 23.3437C17.3421 24.4482 18.6824 25.1341 20.1282 25.2504C21.5739 25.3667 23.0066 24.904 24.1111 23.9639C25.2157 23.0239 25.9016 21.6836 26.0179 20.2379C26.1342 18.7921 25.6714 17.3594 24.7314 16.2549L14.8071 4.59382C14.6191 4.37291 14.5265 4.08637 14.5498 3.79722C14.573 3.50808 14.7102 3.24001 14.9311 3.05201C15.152 2.864 15.4386 2.77145 15.7277 2.79471C16.0169 2.81798 16.2849 2.95515 16.4729 3.17606L26.3973 14.8371C27.7133 16.3835 28.3612 18.3893 28.1983 20.4133C28.0355 22.4373 27.0753 24.3138 25.5289 25.6298C23.9826 26.9459 21.9767 27.5937 19.9527 27.4309C17.9287 27.268 16.0523 26.3078 14.7362 24.7614L1.97635 9.76867Z" fill="black"/>
</svg>
