<svg width="17" height="14" viewBox="0 0 17 14" fill="none" xmlns="http://www.w3.org/2000/svg">
<path d="M15.1 5.72C15.4467 5.72 15.7333 5.82667 15.96 6.04C16.2 6.25333 16.32 6.52667 16.32 6.86C16.32 7.19333 16.2 7.47333 15.96 7.7C15.7333 7.91333 15.4467 8.02 15.1 8.02H14.2V12.78C14.2 13.1267 14.08 13.42 13.84 13.66C13.6133 13.8867 13.3267 14 12.98 14C12.7933 14 12.6067 13.9733 12.42 13.92C12.2467 13.8533 12.12 13.7667 12.04 13.66L7.44 7.82H4.7V12.88C4.7 13.2 4.59333 13.4667 4.38 13.68C4.18 13.8933 3.91333 14 3.58 14C3.26 14 3 13.8933 2.8 13.68C2.6 13.4667 2.5 13.2 2.5 12.88V8.02H1.82C1.47333 8.02 1.18667 7.91333 0.96 7.7C0.72 7.47333 0.6 7.19333 0.6 6.86C0.6 6.52667 0.72 6.25333 0.96 6.04C1.18667 5.82667 1.47333 5.72 1.82 5.72H2.5V1.22C2.5 0.873333 2.61333 0.586666 2.84 0.359999C3.08 0.119999 3.37333 -9.53674e-07 3.72 -9.53674e-07C3.92 -9.53674e-07 4.11333 0.0399993 4.3 0.12C4.5 0.2 4.64667 0.306666 4.74 0.439999L9.04 5.92H12.02V1.12C12.02 0.799999 12.12 0.533333 12.32 0.32C12.5333 0.106666 12.8 -9.53674e-07 13.12 -9.53674e-07C13.44 -9.53674e-07 13.7 0.106666 13.9 0.32C14.1 0.533333 14.2 0.799999 14.2 1.12V5.72H15.1ZM5.94 5.92L4.7 4.34V5.92H5.94ZM10.52 7.82L12.02 9.72V7.82H10.52Z" fill="white"/>
</svg>
