<svg width="28" height="28" viewBox="0 0 28 28" fill="none" xmlns="http://www.w3.org/2000/svg">
<path d="M27.5828 3.54688C27.8018 3.76654 27.9247 4.06406 27.9247 4.37423C27.9247 4.68439 27.8018 4.98191 27.5828 5.20157L25.1383 7.64844L20.4508 2.96094L22.8953 0.514069C23.1151 0.294376 23.4131 0.170959 23.7238 0.170959C24.0346 0.170959 24.3326 0.294376 24.5523 0.514069L27.5828 3.54454V3.54688ZM23.4812 9.30313L18.7937 4.61563L2.82578 20.5859C2.69678 20.7149 2.59968 20.8722 2.54218 21.0453L0.655466 26.7031C0.62125 26.8063 0.616391 26.9169 0.641435 27.0227C0.666479 27.1284 0.720438 27.2251 0.797281 27.3019C0.874124 27.3788 0.970824 27.4327 1.07657 27.4578C1.18232 27.4828 1.29295 27.478 1.39609 27.4438L7.0539 25.557C7.22679 25.5002 7.38407 25.4039 7.51328 25.2758L23.4812 9.30547V9.30313Z" fill="black"/>
</svg>
