<svg width="24" height="22" viewBox="0 0 24 22" fill="none" xmlns="http://www.w3.org/2000/svg">
<path d="M12 11C13.4918 11 14.9226 10.4469 15.9775 9.46231C17.0324 8.47774 17.625 7.14239 17.625 5.75C17.625 4.35761 17.0324 3.02226 15.9775 2.03769C14.9226 1.05312 13.4918 0.5 12 0.5C10.5082 0.5 9.07742 1.05312 8.02252 2.03769C6.96763 3.02226 6.375 4.35761 6.375 5.75C6.375 7.14239 6.96763 8.47774 8.02252 9.46231C9.07742 10.4469 10.5082 11 12 11ZM15.75 5.75C15.75 6.67826 15.3549 7.5685 14.6516 8.22487C13.9484 8.88125 12.9946 9.25 12 9.25C11.0054 9.25 10.0516 8.88125 9.34835 8.22487C8.64509 7.5685 8.25 6.67826 8.25 5.75C8.25 4.82174 8.64509 3.9315 9.34835 3.27513C10.0516 2.61875 11.0054 2.25 12 2.25C12.9946 2.25 13.9484 2.61875 14.6516 3.27513C15.3549 3.9315 15.75 4.82174 15.75 5.75ZM23.25 19.75C23.25 21.5 21.375 21.5 21.375 21.5H2.625C2.625 21.5 0.75 21.5 0.75 19.75C0.75 18 2.625 12.75 12 12.75C21.375 12.75 23.25 18 23.25 19.75ZM21.375 19.743C21.3731 19.3125 21.0863 18.0175 19.815 16.831C18.5925 15.69 16.2919 14.5 12 14.5C7.70625 14.5 5.4075 15.69 4.185 16.831C2.91375 18.0175 2.62875 19.3125 2.625 19.743H21.375Z" fill="white"/>
</svg>
