<svg width="30" height="19" viewBox="0 0 30 19" fill="none" xmlns="http://www.w3.org/2000/svg">
<path d="M1.875 0C1.37772 0 0.900806 0.197544 0.549175 0.549175C0.197544 0.900806 0 1.37772 0 1.875L0 16.875C0 17.3723 0.197544 17.8492 0.549175 18.2008C0.900806 18.5525 1.37772 18.75 1.875 18.75H9.53063C9.63938 18.105 9.8025 17.4788 10.0144 16.875H5.625C5.625 15.8804 5.22991 14.9266 4.52665 14.2233C3.82339 13.5201 2.86956 13.125 1.875 13.125V5.625C2.86956 5.625 3.82339 5.22991 4.52665 4.52665C5.22991 3.82339 5.625 2.86956 5.625 1.875H24.375C24.375 2.86956 24.7701 3.82339 25.4734 4.52665C26.1766 5.22991 27.1304 5.625 28.125 5.625V12.24C28.8375 12.8775 29.4694 13.605 30 14.4038V1.875C30 1.37772 29.8025 0.900806 29.4508 0.549175C29.0992 0.197544 28.6223 0 28.125 0L1.875 0Z" fill="white"/>
</svg>
