<svg width="34" height="34" viewBox="0 0 34 34" fill="none" xmlns="http://www.w3.org/2000/svg">
<path fill-rule="evenodd" clip-rule="evenodd" d="M0.59375 29.6406C0.59375 30.573 0.964145 31.4672 1.62345 32.1265C2.28276 32.7859 3.17697 33.1562 4.10938 33.1562H29.8906C30.823 33.1562 31.7172 32.7859 32.3765 32.1265C33.0359 31.4672 33.4062 30.573 33.4062 29.6406V15.5781C33.4062 15.2673 33.2828 14.9693 33.063 14.7495C32.8432 14.5297 32.5452 14.4062 32.2344 14.4062C31.9236 14.4062 31.6255 14.5297 31.4057 14.7495C31.186 14.9693 31.0625 15.2673 31.0625 15.5781V29.6406C31.0625 29.9514 30.939 30.2495 30.7193 30.4693C30.4995 30.689 30.2014 30.8125 29.8906 30.8125H4.10938C3.79857 30.8125 3.5005 30.689 3.28073 30.4693C3.06097 30.2495 2.9375 29.9514 2.9375 29.6406V3.85938C2.9375 3.54857 3.06097 3.2505 3.28073 3.03073C3.5005 2.81097 3.79857 2.6875 4.10938 2.6875H19.3438C19.6546 2.6875 19.9526 2.56403 20.1724 2.34427C20.3922 2.1245 20.5156 1.82643 20.5156 1.51562C20.5156 1.20482 20.3922 0.906753 20.1724 0.686984C19.9526 0.467215 19.6546 0.34375 19.3438 0.34375H4.10938C3.17697 0.34375 2.28276 0.714145 1.62345 1.37345C0.964145 2.03276 0.59375 2.92697 0.59375 3.85938V29.6406Z" fill="black"/>
</svg>
