<svg width="30" height="28" viewBox="0 0 30 28" fill="none" xmlns="http://www.w3.org/2000/svg">
<path d="M30 14C30 17.713 28.4196 21.274 25.6066 23.8995C22.7936 26.525 18.9782 28 15 28C11.0218 28 7.20644 26.525 4.3934 23.8995C1.58035 21.274 0 17.713 0 14C0 10.287 1.58035 6.72601 4.3934 4.10051C7.20644 1.475 11.0218 0 15 0C18.9782 0 22.7936 1.475 25.6066 4.10051C28.4196 6.72601 30 10.287 30 14ZM10.305 10.5577H11.8519C12.1106 10.5577 12.3169 10.36 12.3506 10.1202C12.5194 8.97225 13.3631 8.13575 14.8669 8.13575C16.1531 8.13575 17.3306 8.736 17.3306 10.1797C17.3306 11.291 16.6294 11.802 15.5212 12.579C14.2594 13.4348 13.26 14.434 13.3313 16.0562L13.3369 16.436C13.3388 16.5508 13.3891 16.6603 13.4768 16.7408C13.5645 16.8214 13.6826 16.8665 13.8056 16.8665H15.3263C15.4506 16.8665 15.5698 16.8204 15.6577 16.7384C15.7456 16.6563 15.795 16.545 15.795 16.429V16.2453C15.795 14.9888 16.3069 14.623 17.6887 13.6447C18.8306 12.8345 20.0213 11.935 20.0213 10.0468C20.0213 7.4025 17.6287 6.125 15.0094 6.125C12.6337 6.125 10.0312 7.1575 9.85313 10.1255C9.85056 10.182 9.8604 10.2384 9.88206 10.2913C9.90371 10.3441 9.93672 10.3922 9.97904 10.4327C10.0214 10.4732 10.0721 10.5052 10.1282 10.5267C10.1842 10.5482 10.2444 10.5588 10.305 10.5577ZM14.6644 21.833C15.8081 21.833 16.5938 21.1435 16.5938 20.2108C16.5938 19.2447 15.8063 18.5658 14.6644 18.5658C13.5694 18.5658 12.7725 19.2447 12.7725 20.2108C12.7725 21.1435 13.5694 21.833 14.6663 21.833H14.6644Z" fill="#FF8A00"/>
</svg>
