<svg width="26" height="26" viewBox="0 0 26 26" fill="none" xmlns="http://www.w3.org/2000/svg">
<path d="M2.68749 13C2.6872 11.1896 3.1635 9.4111 4.06849 7.84318C4.97349 6.27526 6.27529 4.9732 7.84304 4.0679C9.41078 3.1626 11.1892 2.68595 12.9996 2.68588C14.8099 2.68581 16.5884 3.16232 18.1562 4.0675C18.3714 4.18985 18.6263 4.22212 18.8652 4.15726C19.1041 4.0924 19.3077 3.93567 19.4315 3.72127C19.5553 3.50688 19.5892 3.25222 19.526 3.01288C19.4627 2.77354 19.3073 2.56895 19.0937 2.44375C16.7703 1.10234 14.0693 0.565035 11.4094 0.915171C8.74952 1.26531 6.2795 2.48331 4.3824 4.38029C2.4853 6.27727 1.26714 8.74721 0.916829 11.4071C0.566523 14.0669 1.10365 16.768 2.44491 19.0915C3.78617 21.415 5.85661 23.231 8.33513 24.2578C10.8136 25.2847 13.5617 25.4651 16.1532 24.771C18.7447 24.0768 21.0347 22.547 22.6681 20.4188C24.3016 18.2906 25.1871 15.6828 25.1875 13C25.1875 12.7514 25.0887 12.5129 24.9129 12.3371C24.7371 12.1613 24.4986 12.0625 24.25 12.0625C24.0013 12.0625 23.7629 12.1613 23.5871 12.3371C23.4113 12.5129 23.3125 12.7514 23.3125 13C23.3125 15.735 22.226 18.3581 20.292 20.292C18.3581 22.226 15.735 23.3125 13 23.3125C10.2649 23.3125 7.64192 22.226 5.70795 20.292C3.77398 18.3581 2.68749 15.735 2.68749 13Z" fill="black"/>
</svg>
