<svg width="200" height="176" viewBox="0 0 200 176" fill="none" xmlns="http://www.w3.org/2000/svg">
<path d="M99.2249 13.2C99.47 13.0656 99.7455 12.9967 100.025 13C100.3 12.9989 100.571 13.0677 100.812 13.2C101.098 13.3714 101.332 13.6178 101.487 13.9125L187.2 159.75C187.65 160.5 187.637 161.3 187.225 162.037C187.066 162.34 186.834 162.598 186.55 162.787C186.302 162.939 186.015 163.013 185.725 163H14.3249C14.0348 163.014 13.7471 162.94 13.4999 162.787C13.2156 162.598 12.9835 162.34 12.8249 162.037C12.6189 161.691 12.5123 161.294 12.5167 160.89C12.5211 160.487 12.6364 160.092 12.8499 159.75L98.5499 13.9125C98.7062 13.6182 98.9395 13.3719 99.2249 13.2ZM112.275 7.57496C111.038 5.41951 109.253 3.62871 107.103 2.38337C104.952 1.13803 102.51 0.482254 100.025 0.482254C97.5396 0.482254 95.0982 1.13803 92.9473 2.38337C90.7965 3.62871 89.0123 5.41951 87.7749 7.57496L2.06243 153.412C-3.65007 163.137 3.19993 175.5 14.3124 175.5H185.725C196.837 175.5 203.7 163.125 197.975 153.412L112.275 7.57496Z" fill="black"/>
</svg>
