<svg width="58" height="48" viewBox="0 0 58 48" fill="none" xmlns="http://www.w3.org/2000/svg">
<path d="M44.6154 3.04966C42.2488 3.04966 39.9792 3.67606 38.3058 4.79106C36.6324 5.90606 35.6923 7.41833 35.6923 8.99517V20.8862C38.0589 20.8862 40.3285 21.5126 42.0019 22.6276C43.6753 23.7426 44.6154 25.2549 44.6154 26.8317V41.6955C44.6154 43.2723 43.6753 44.7846 42.0019 45.8996C40.3285 47.0146 38.0589 47.641 35.6923 47.641H8.92308C6.55653 47.641 4.28691 47.0146 2.61351 45.8996C0.940107 44.7846 0 43.2723 0 41.6955V26.8317C0 25.2549 0.940107 23.7426 2.61351 22.6276C4.28691 21.5126 6.55653 20.8862 8.92308 20.8862H31.2308V8.99517C31.2308 6.6299 32.6409 4.3615 35.151 2.689C37.6611 1.0165 41.0656 0.0769043 44.6154 0.0769043C48.1652 0.0769043 51.5696 1.0165 54.0797 2.689C56.5898 4.3615 58 6.6299 58 8.99517V20.8862C58 21.2804 57.765 21.6585 57.3466 21.9372C56.9283 22.216 56.3609 22.3726 55.7692 22.3726C55.1776 22.3726 54.6102 22.216 54.1918 21.9372C53.7735 21.6585 53.5385 21.2804 53.5385 20.8862V8.99517C53.5385 7.41833 52.5984 5.90606 50.9249 4.79106C49.2515 3.67606 46.9819 3.04966 44.6154 3.04966ZM8.92308 23.859C7.7398 23.859 6.60499 24.1722 5.76829 24.7297C4.93159 25.2872 4.46154 26.0433 4.46154 26.8317V41.6955C4.46154 42.4839 4.93159 43.2401 5.76829 43.7976C6.60499 44.355 7.7398 44.6683 8.92308 44.6683H35.6923C36.8756 44.6683 38.0104 44.355 38.8471 43.7976C39.6838 43.2401 40.1538 42.4839 40.1538 41.6955V26.8317C40.1538 26.0433 39.6838 25.2872 38.8471 24.7297C38.0104 24.1722 36.8756 23.859 35.6923 23.859H8.92308Z" fill="black"/>
</svg>
